<?xml version="1.0" encoding="utf-8"?>
<!-- Generator: Adobe Illustrator 27.2.0, SVG Export Plug-In . SVG Version: 6.00 Build 0)  -->
<svg version="1.1" id="Layer_1" xmlns="http://www.w3.org/2000/svg" xmlns:xlink="http://www.w3.org/1999/xlink" x="0px" y="0px"
	 viewBox="0 0 40 40" style="enable-background:new 0 0 40 40;" xml:space="preserve">
<style type="text/css">
	.st0{fill:#21D789;}
	.st1{fill:#6B57FF;}
	.st2{fill:#3BEA62;}
	.st3{fill:none;}
</style>
<g>
	<g>
		<g>
			<polygon class="st0" points="20.2,13.3 13.9,10.7 13.9,2.6 20.2,5.3 			"/>
		</g>
		<polygon class="st1" points="20.2,13.3 26.5,10.7 26.5,2.7 20.2,5.3 		"/>
		<polygon class="st2" points="13.9,2.6 20.2,0.1 26.5,2.7 20.2,5.3 		"/>
	</g>
	<g>
		<polygon class="st0" points="20.2,18.5 13.9,15.9 13.9,7.8 20.2,10.5 		"/>
	</g>
	<g>
		<polygon class="st3" points="7.5,34.6 1.2,32 1.3,24 7.5,26.6 		"/>
	</g>
	<g>
		<polygon class="st1" points="20.1,39.9 38.8,32 28.3,24.2 38.8,7.8 20.1,15.7 		"/>
	</g>
	<polygon class="st1" points="13.8,32 7.6,34.6 7.6,26.7 13.8,29.3 	"/>
	<polygon class="st0" points="20.1,39.9 20.1,15.7 13.9,13.1 13.9,21.1 7.6,18.5 7.6,26.7 1.2,24 1.2,32 7.6,34.6 7.6,26.7 
		13.8,29.3 13.8,37.3 	"/>
	<polygon class="st2" points="13.9,15.9 7.6,18.5 13.9,21.1 	"/>
	<polygon class="st2" points="7.6,21.1 1.2,24 7.6,26.7 	"/>
	<g>
		<g>
			<polygon class="st0" points="7.6,18.5 1.3,15.8 1.3,7.7 7.6,10.4 			"/>
		</g>
		<polygon class="st1" points="7.6,18.5 13.9,15.9 13.9,7.8 7.6,10.4 		"/>
		<polygon class="st2" points="1.3,7.7 7.6,5.2 13.9,7.8 7.6,10.4 		"/>
		<polygon class="st2" points="32.5,5.2 26.5,7.7 20.2,5.3 20.2,5.3 20.2,5.3 13.9,7.8 20.1,10.4 13.9,13.1 20.1,15.7 38.8,7.8 		
			"/>
	</g>
</g>
</svg>
